<svg width="24" height="24" viewBox="0 0 24 24" fill="none" xmlns="http://www.w3.org/2000/svg">
<path d="M18 22C19.0609 22 20.0783 21.5786 20.8284 20.8284C21.5786 20.0783 22 19.0609 22 18V3C22 2.73478 21.8946 2.48043 21.7071 2.29289C21.5196 2.10536 21.2652 2 21 2C20.7348 2 20.4804 2.10536 20.2929 2.29289C20.1054 2.48043 20 2.73478 20 3V14.556C19.3947 14.1961 18.7043 14.0041 18 14C16.9391 14 15.9217 14.4214 15.1716 15.1716C14.4214 15.9217 14 16.9391 14 18C14 19.0609 14.4214 20.0783 15.1716 20.8284C15.9217 21.5786 16.9391 22 18 22ZM18 16C18.3956 16 18.7822 16.1173 19.1111 16.3371C19.44 16.5568 19.6964 16.8692 19.8478 17.2346C19.9991 17.6001 20.0387 18.0022 19.9616 18.3902C19.8844 18.7781 19.6939 19.1345 19.4142 19.4142C19.1345 19.6939 18.7781 19.8844 18.3902 19.9616C18.0022 20.0387 17.6001 19.9991 17.2346 19.8478C16.8692 19.6964 16.5568 19.44 16.3371 19.1111C16.1173 18.7822 16 18.3956 16 18C16 17.4696 16.2107 16.9609 16.5858 16.5858C16.9609 16.2107 17.4696 16 18 16ZM12 14.5H3C2.73478 14.5 2.48043 14.3946 2.29289 14.2071C2.10536 14.0196 2 13.7652 2 13.5C2 13.2348 2.10536 12.9804 2.29289 12.7929C2.48043 12.6054 2.73478 12.5 3 12.5H12C12.2652 12.5 12.5196 12.6054 12.7071 12.7929C12.8946 12.9804 13 13.2348 13 13.5C13 13.7652 12.8946 14.0196 12.7071 14.2071C12.5196 14.3946 12.2652 14.5 12 14.5ZM11 19C11.2652 19 11.5196 19.1054 11.7071 19.2929C11.8946 19.4804 12 19.7348 12 20C12 20.2652 11.8946 20.5196 11.7071 20.7071C11.5196 20.8946 11.2652 21 11 21H3C2.73478 21 2.48043 20.8946 2.29289 20.7071C2.10536 20.5196 2 20.2652 2 20C2 19.7348 2.10536 19.4804 2.29289 19.2929C2.48043 19.1054 2.73478 19 3 19H11ZM17 8H3C2.73478 8 2.48043 7.89464 2.29289 7.70711C2.10536 7.51957 2 7.26522 2 7C2 6.73478 2.10536 6.48043 2.29289 6.29289C2.48043 6.10536 2.73478 6 3 6H17C17.2652 6 17.5196 6.10536 17.7071 6.29289C17.8946 6.48043 18 6.73478 18 7C18 7.26522 17.8946 7.51957 17.7071 7.70711C17.5196 7.89464 17.2652 8 17 8Z" fill="white"/>
</svg>
