<svg width="24" height="24" viewBox="0 0 24 24" fill="none" xmlns="http://www.w3.org/2000/svg">
<path d="M22 18V3C22 2.73478 21.8946 2.48043 21.7071 2.29289C21.5196 2.10536 21.2652 2 21 2H9C8.73478 2 8.48043 2.10536 8.29289 2.29289C8.10536 2.48043 8 2.73478 8 3V14.556C7.39465 14.1961 6.70425 14.0041 6 14C5.20887 14 4.43552 14.2346 3.77772 14.6741C3.11992 15.1136 2.60723 15.7384 2.30448 16.4693C2.00173 17.2002 1.92252 18.0044 2.07686 18.7804C2.2312 19.5563 2.61216 20.269 3.17157 20.8284C3.73098 21.3878 4.44371 21.7688 5.21964 21.9231C5.99556 22.0775 6.79983 21.9983 7.53073 21.6955C8.26164 21.3928 8.88635 20.8801 9.32588 20.2223C9.7654 19.5645 10 18.7911 10 18V4H20V14.556C19.3947 14.1961 18.7043 14.0041 18 14C17.2089 14 16.4355 14.2346 15.7777 14.6741C15.1199 15.1136 14.6072 15.7384 14.3045 16.4693C14.0017 17.2002 13.9225 18.0044 14.0769 18.7804C14.2312 19.5563 14.6122 20.269 15.1716 20.8284C15.731 21.3878 16.4437 21.7688 17.2196 21.9231C17.9956 22.0775 18.7998 21.9983 19.5307 21.6955C20.2616 21.3928 20.8864 20.8801 21.3259 20.2223C21.7654 19.5645 22 18.7911 22 18ZM6 20C5.60444 20 5.21776 19.8827 4.88886 19.6629C4.55996 19.4432 4.30362 19.1308 4.15224 18.7654C4.00087 18.3999 3.96126 17.9978 4.03843 17.6098C4.1156 17.2219 4.30608 16.8655 4.58579 16.5858C4.86549 16.3061 5.22186 16.1156 5.60982 16.0384C5.99778 15.9613 6.39991 16.0009 6.76537 16.1522C7.13082 16.3036 7.44318 16.56 7.66294 16.8889C7.8827 17.2178 8 17.6044 8 18C8 18.5304 7.78929 19.0391 7.41421 19.4142C7.03914 19.7893 6.53043 20 6 20ZM16 18C16 17.6044 16.1173 17.2178 16.3371 16.8889C16.5568 16.56 16.8692 16.3036 17.2346 16.1522C17.6001 16.0009 18.0022 15.9613 18.3902 16.0384C18.7781 16.1156 19.1345 16.3061 19.4142 16.5858C19.6939 16.8655 19.8844 17.2219 19.9616 17.6098C20.0387 17.9978 19.9991 18.3999 19.8478 18.7654C19.6964 19.1308 19.44 19.4432 19.1111 19.6629C18.7822 19.8827 18.3956 20 18 20C17.4696 20 16.9609 19.7893 16.5858 19.4142C16.2107 19.0391 16 18.5304 16 18Z" fill="white"/>
</svg>
